<svg width="33" height="28" viewBox="0 0 33 28" fill="none" xmlns="http://www.w3.org/2000/svg">
<path d="M29.5448 0.267204C29.5117 0.264896 29.4838 0.25 29.4492 0.25H15.172C12.9753 0.25 11.1876 1.7923 11.1876 3.6875V4.83326C11.1876 5.46584 11.7824 5.97924 12.5156 5.97924C13.2488 5.97924 13.8437 5.46584 13.8437 4.83326V3.6875C13.8437 3.05619 14.44 2.54174 15.172 2.54174H21.3596L20.9545 2.6586C19.8789 2.9794 19.1563 3.85367 19.1563 4.83326V22.0208H15.172C14.44 22.0208 13.8437 21.5063 13.8437 20.875V18.5833C13.8437 17.9509 13.2488 17.4375 12.5156 17.4375C11.7824 17.4375 11.1876 17.9509 11.1876 18.5833V20.875C11.1876 22.7702 12.9753 24.3125 15.172 24.3125H19.1563V25.4583C19.1563 26.7221 20.3475 27.75 21.8124 27.75C22.0967 27.75 22.3664 27.7145 22.6585 27.6365L30.6379 25.3414C31.715 25.0206 32.4375 24.1463 32.4375 23.1667V2.54174C32.4375 1.20568 31.1027 0.158314 29.5448 0.267204Z" fill="#FCFCFF"/>
<path d="M14.7826 10.8982L9.47019 6.31494C9.09034 5.98722 8.51933 5.88861 8.0225 6.06631C7.52713 6.24381 7.20321 6.66217 7.20321 7.12501V10.5625H1.89054C1.15758 10.5625 0.5625 11.0759 0.5625 11.7083C0.5625 12.3408 1.15758 12.8542 1.89054 12.8542H7.20321V16.2917C7.20321 16.7546 7.52713 17.1727 8.0225 17.3504C8.51933 17.5279 9.09034 17.4295 9.47019 17.1018L14.7826 12.5183C15.3021 12.0704 15.3021 11.3464 14.7826 10.8982Z" fill="#FCFCFF"/>
</svg>
