<svg width="30" height="32" viewBox="0 0 30 32" fill="none" xmlns="http://www.w3.org/2000/svg">
<path d="M25.6223 3.96434C22.8075 1.42602 18.9899 -2.67456e-08 15.0092 0C11.0285 2.67456e-08 7.21086 1.42602 4.39609 3.96434C1.58132 6.50267 2.96584e-08 9.94538 0 13.5351C-2.96584e-08 17.1249 1.58132 20.5676 4.39609 23.1059L13.7179 31.5282C13.8824 31.6777 14.078 31.7963 14.2936 31.8773C14.5091 31.9583 14.7403 32 14.9738 32C15.2073 32 15.4385 31.9583 15.6541 31.8773C15.8696 31.7963 16.0653 31.6777 16.2297 31.5282L25.6223 23.0261C28.4253 20.4984 30 17.07 30 13.4952C30 9.92047 28.4253 6.49211 25.6223 3.96434ZM23.0928 20.7451L15.0092 28.0667L6.92554 20.7451C5.32853 19.3036 4.24127 17.4675 3.80122 15.4689C3.36116 13.4702 3.58806 11.3988 4.45323 9.51648C5.3184 7.63412 6.783 6.02533 8.6619 4.89347C10.5408 3.76161 12.7496 3.1575 15.0092 3.1575C17.2687 3.1575 19.4776 3.76161 21.3565 4.89347C23.2354 6.02533 24.7 7.63412 25.5651 9.51648C26.4303 11.3988 26.6572 13.4702 26.2172 15.4689C25.7771 17.4675 24.6898 19.3036 23.0928 20.7451ZM9.70264 8.63807C8.27467 9.92976 7.47282 11.6793 7.47282 13.5032C7.47282 15.3271 8.27467 17.0767 9.70264 18.3684C10.7635 19.3267 12.1146 19.9812 13.5864 20.2497C15.0582 20.5182 16.5851 20.3887 17.9757 19.8776C19.3662 19.3665 20.5584 18.4964 21.4027 17.3766C22.2469 16.2568 22.7057 14.937 22.7214 13.583C22.7293 12.6789 22.5362 11.7825 22.1534 10.9468C21.7706 10.1112 21.2059 9.35326 20.4926 8.71783C19.7916 8.07113 18.9556 7.55584 18.0329 7.2016C17.1102 6.84737 16.1189 6.66119 15.116 6.65378C14.1132 6.64636 13.1186 6.81786 12.1896 7.15841C11.2605 7.49896 10.4153 8.00182 9.70264 8.63807ZM17.9985 16.1033C17.3282 16.717 16.4423 17.1017 15.4923 17.1916C14.5423 17.2814 13.5871 17.0709 12.7902 16.5961C11.9932 16.1212 11.4039 15.4114 11.123 14.588C10.8422 13.7647 10.8871 12.8789 11.2503 12.0822C11.6135 11.2855 12.2722 10.6272 13.114 10.22C13.9558 9.81281 14.9283 9.68193 15.8652 9.84976C16.8021 10.0176 17.6453 10.4737 18.2506 11.1401C18.8559 11.8065 19.1857 12.6418 19.1837 13.5032C19.1579 14.4878 18.6999 15.423 17.9101 16.1033H17.9985Z" fill="#5B5B5B"/>
</svg>
