<svg width="257" height="236" viewBox="0 0 257 236" fill="none" xmlns="http://www.w3.org/2000/svg">
<g clip-path="url(#clip0_15_91)">
<path d="M2.34214 76.5447C15.7763 26.3509 82.4878 10.1546 101.609 5.51694C162.633 -9.2987 236.797 7.08052 245.403 38.476C251.464 60.5903 223.021 82.8875 235.196 109.044C241.441 122.461 251.497 122.113 253.288 130.863C258.758 157.65 178.042 227.274 100.212 208.393C41.1555 194.061 -11.912 129.818 2.34214 76.5447Z" fill="#E6E6E6"/>
<path d="M4.99878 231.616C4.04108 230.678 3.62126 229.628 3.83117 228.53C4.93319 222.736 13.3098 227.457 13.3098 227.457C13.3098 227.457 11.8405 225.303 12.667 222.512C13.4935 219.715 18.7412 222.512 18.7412 222.512C18.7412 222.512 14.6021 213.638 20.3943 213.408C26.193 213.172 28.397 224.477 28.397 224.477C28.397 224.477 34.1957 218.352 38.6104 221.303C43.025 224.247 41.372 231.622 41.372 231.622H4.99878V231.616Z" fill="#A11F24"/>
<path d="M31.6243 217.149C31.6243 217.149 32.9691 212.547 30.1419 211.461C30.1419 211.461 28.3773 212.069 29.4334 214.11C30.4961 216.152 31.6178 217.149 31.6178 217.149H31.6243Z" fill="#404FA8"/>
<path d="M8.8165 223.061C8.8165 223.061 5.5498 219.32 2.88003 220.689C2.88003 220.689 2.3487 222.323 4.802 222.795C7.2553 223.267 8.8165 223.061 8.8165 223.061Z" fill="#404FA8"/>
<path d="M158.553 234.212C158.553 234.212 150.242 232.95 150.688 229.899C151.541 224.07 164.004 228.371 164.004 228.371C164.004 228.371 163.329 225.504 165.08 224.27C168.832 221.615 172.289 225.102 172.289 225.102C172.289 225.102 169.114 219.273 174.913 219.043C180.712 218.807 181.952 227.067 181.952 227.067C181.952 227.067 187.75 220.943 192.165 223.893C196.58 226.837 194.927 234.212 194.927 234.212H158.56H158.553Z" fill="#A11F24"/>
<path d="M162.371 225.657C162.371 225.657 159.104 221.916 156.435 223.285C156.435 223.285 155.903 224.919 158.357 225.391C160.803 225.863 162.371 225.657 162.371 225.657Z" fill="#A11F24"/>
<path d="M187.029 113.557C186.773 113.25 184.188 112.188 182.824 111.345C181.46 110.501 180.856 108.849 180.856 108.849L182.017 103.539L189.095 105.928L187.029 113.551V113.557Z" fill="#FFC89E"/>
<path d="M181.971 103.462C181.971 103.462 182.995 102.14 185.507 101.798C187.632 101.509 189.561 99.6148 190.204 100.11C191.378 101.019 188.452 103.255 182.647 107.026L181.971 103.462Z" fill="#FFC89E"/>
<path d="M188.199 102.297L187.673 102.228C186.616 102.088 185.633 102.746 185.478 103.698L183.729 114.44C183.575 115.391 184.306 116.275 185.364 116.414L185.889 116.483C186.947 116.623 187.93 115.964 188.084 115.013L189.833 104.271C189.988 103.32 189.256 102.436 188.199 102.297Z" fill="#F5B829"/>
<path d="M189.659 111.911C189.659 111.911 187.068 110.761 185.33 111.722C183.736 112.607 185.763 113.522 187.796 113.958C189.823 114.395 191.378 115.852 191.26 111.675C191.102 106.082 190.059 104.689 190.059 104.689C190.059 104.689 187.829 105.692 189.659 111.911Z" fill="#FFC89E"/>
<path d="M185.717 110.713C185.769 111.492 187.396 111.846 188.911 111.958C192.053 112.188 192.021 111.02 191.968 110.241C191.916 109.462 189.895 109.073 188.373 109.156C186.852 109.238 185.664 109.934 185.717 110.713Z" fill="#FFC89E"/>
<path d="M186.196 107.769C186.097 108.701 187.291 109.344 188.767 109.687C191.115 110.229 191.903 109.185 192.001 108.253C192.099 107.321 190.545 106.984 189.029 106.855C187.514 106.725 186.301 106.831 186.202 107.763L186.196 107.769Z" fill="#FFC89E"/>
<path d="M186.806 105.639C186.727 106.4 187.658 107.014 188.852 107.203C191.102 107.557 191.634 107.073 191.712 106.312C191.791 105.551 190.348 104.547 189.141 104.447C187.927 104.347 186.884 104.878 186.806 105.639Z" fill="#FFC89E"/>
<path d="M140.652 83.9437L145.414 99.9099C145.71 100.907 146.569 101.686 147.677 101.963L182.089 109.097L183.218 103.851L157.287 92.1982L153.548 81.7016" fill="#FFC89E"/>
<path d="M153.548 81.7134L146.72 62.5492C145.526 59.2037 141.157 57.7523 137.838 59.5991C135.581 60.8558 134.499 63.2926 135.188 65.5997L140.659 83.9378" fill="#404FA8"/>
<path d="M159.531 96.0334C159.623 95.9803 159.531 95.8918 159.491 95.821C159.439 95.7443 159.386 95.6735 159.321 95.5968L158.973 95.1542C158.737 94.8592 158.521 94.5465 158.311 94.2397C157.904 93.6084 157.523 92.9652 157.294 92.2041C158.009 92.6584 158.514 93.2602 158.953 93.8975C159.157 94.222 159.354 94.5583 159.491 94.9182C159.564 95.0952 159.623 95.284 159.662 95.4788C159.675 95.5791 159.695 95.6735 159.695 95.7797C159.695 95.8328 159.695 95.8859 159.675 95.939C159.668 95.9921 159.596 96.0629 159.537 96.0393L159.531 96.0334Z" fill="#DEA385"/>
<path d="M119.478 108.341C113.252 108.341 107.1 105.326 101.537 99.4142L102.672 98.5469C112.918 109.439 122.443 107.858 128.628 104.612C141.092 98.0808 149.481 79.4653 144.949 68.4023C142.791 63.1333 139.563 59.8292 135.352 58.5665C128.287 56.4601 120.737 60.8027 120.658 60.8499L119.845 59.7289C120.179 59.5342 128.084 54.9909 135.818 57.2979C140.482 58.6904 144.024 62.2719 146.346 67.9421C151.088 79.5184 142.364 98.9658 129.376 105.769C126.103 107.486 122.771 108.335 119.471 108.335L119.478 108.341Z" fill="#F73E60"/>
<path d="M106.581 99.6149L70.7198 84.9762C68.9421 84.2505 68.155 82.3624 68.9618 80.7634L80.8413 41.9336C81.6481 40.3346 88.0307 41.3789 89.8083 42.1047L125.67 56.7433C127.448 57.469 128.235 59.3571 127.428 60.9561L111.265 98.0336C110.458 99.6326 108.359 100.341 106.581 99.6149Z" fill="#CF3162"/>
<path d="M151.797 203.307C152.177 203.212 152.512 202.97 152.689 202.622C153.004 201.997 152.696 201.265 152.007 200.982L125.624 190.338C124.935 190.055 124.115 190.332 123.8 190.951C123.485 191.577 123.794 192.308 124.483 192.592L150.865 203.236C151.167 203.36 151.495 203.377 151.797 203.301V203.307Z" fill="#C2BEC1"/>
<path d="M176.578 200.622L151.015 198.469C149.147 198.311 147.49 199.546 147.315 201.227L147.228 202.061C147.053 203.742 148.426 205.232 150.295 205.389L175.857 207.542C177.726 207.7 179.382 206.465 179.557 204.784L179.644 203.95C179.819 202.27 178.446 200.78 176.578 200.622Z" fill="#D5232B"/>
<path d="M178.79 206.162C178.567 204.587 177.156 203.301 175.326 203.147L150.688 201.07C149.317 200.952 148.058 201.501 147.277 202.416C147.5 203.991 148.911 205.277 150.741 205.431L175.379 207.508C176.75 207.626 178.009 207.077 178.79 206.162Z" fill="#A11F24"/>
<path d="M159.655 185.323C159.655 185.323 159.675 189.175 166.628 191.459C173.581 193.742 183.027 194.256 184.962 195.866C186.898 197.477 184.962 200.657 183.349 201.011C181.656 201.377 170.944 201.312 165.815 200.085C160.685 198.858 158.357 198.185 156.264 198.628C154.171 199.07 152.092 199.377 149.567 199.247C147.041 199.117 146.215 189.311 149.18 185.747C152.145 182.184 159.662 185.323 159.662 185.323H159.655Z" fill="#F73E60"/>
<path d="M156.257 198.628C154.165 199.07 152.086 199.377 149.56 199.247C148.648 199.2 147.966 197.896 147.592 196.085C149.337 196.515 151.495 197.737 154.349 197.159C156.382 196.751 156.185 195.949 158.068 195.394C162.345 194.138 164.903 197.79 172.427 199.082C175.333 199.584 178.803 200.174 182.089 198.681C183.683 197.955 184.595 197.029 185.33 196.262C186.596 197.949 184.844 200.681 183.342 201.011C181.65 201.377 170.938 201.312 165.808 200.085C160.679 198.858 158.35 198.185 156.257 198.628Z" fill="black"/>
<path d="M161.853 188.485C159.478 174.661 164.004 140.055 164.004 140.055C163.991 139.288 163.86 138.521 163.617 137.784L130.918 101.007L104.194 106.276L143.558 142.581L146.746 190.273L153.594 190.556C156.526 190.68 159.432 189.948 161.853 188.485Z" fill="#333333"/>
<path d="M126.7 109.834C126.7 109.834 130.944 123.305 140.941 140.185L117.529 119.257C121.098 113.54 126.706 109.834 126.706 109.834H126.7Z" fill="black"/>
<path d="M79.1292 161.751C100.264 161.751 117.464 177.221 117.464 196.232C117.464 215.243 100.264 230.714 79.1292 230.714C57.9941 230.714 40.7947 215.243 40.7947 196.232C40.7947 177.221 57.9941 161.751 79.1292 161.751ZM79.1292 158.942C56.2689 158.942 37.6723 175.67 37.6723 196.232C37.6723 216.795 56.2689 233.522 79.1292 233.522C101.99 233.522 120.586 216.795 120.586 196.232C120.586 175.67 101.99 158.942 79.1292 158.942Z" fill="#C2BEC1"/>
<path d="M212.906 161.751C234.042 161.751 251.241 177.221 251.241 196.232C251.241 215.243 234.042 230.714 212.906 230.714C191.771 230.714 174.572 215.243 174.572 196.232C174.572 177.221 191.771 161.751 212.906 161.751ZM212.906 158.942C190.046 158.942 171.45 175.67 171.45 196.232C171.45 216.795 190.046 233.522 212.906 233.522C235.767 233.522 254.363 216.795 254.363 196.232C254.363 175.67 235.767 158.942 212.906 158.942Z" fill="#C2BEC1"/>
<path d="M79.1292 236C54.7536 236 34.9173 218.164 34.9173 196.232C34.9173 174.301 54.7471 156.464 79.1292 156.464C103.511 156.464 123.341 174.301 123.341 196.232C123.341 218.164 103.511 236 79.1292 236ZM79.1292 158.942C56.2689 158.942 37.6723 175.67 37.6723 196.232C37.6723 216.795 56.2689 233.522 79.1292 233.522C101.99 233.522 120.586 216.795 120.586 196.232C120.586 175.67 101.99 158.942 79.1292 158.942Z" fill="#D5232B"/>
<path d="M212.788 236C188.413 236 168.583 218.164 168.583 196.232C168.583 174.301 188.413 156.464 212.788 156.464C237.164 156.464 257 174.301 257 196.232C257 218.164 237.171 236 212.788 236ZM212.788 158.942C189.928 158.942 171.331 175.67 171.331 196.232C171.331 216.795 189.928 233.522 212.788 233.522C235.649 233.522 254.245 216.795 254.245 196.232C254.245 175.67 235.649 158.942 212.788 158.942Z" fill="#D5232B"/>
<path d="M136.172 197.985H79.1358C78.6701 197.985 78.2306 197.772 77.9813 197.418C77.7255 197.064 77.6927 196.622 77.8829 196.238L110.084 132.179C110.307 131.73 110.773 131.417 111.35 131.453C111.895 131.453 112.387 131.754 112.603 132.202L136.349 194.586L187.783 133.931L123.964 133.96C123.203 133.96 122.587 133.406 122.587 132.721C122.587 132.037 123.203 131.482 123.964 131.482L190.663 131.453C191.194 131.453 191.673 131.724 191.903 132.155C192.132 132.586 192.067 133.093 191.732 133.465L137.241 197.524C136.979 197.813 136.585 197.985 136.172 197.985ZM81.2677 195.506H133.791L111.304 135.76L81.2677 195.506Z" fill="#C2BEC1"/>
<path d="M214.756 197.088C214.107 197.188 213.451 196.846 213.228 196.268L183.047 116.661C182.804 116.012 183.185 115.31 183.906 115.091C184.628 114.867 185.408 115.215 185.651 115.864L215.832 195.471C216.075 196.12 215.694 196.822 214.973 197.041C214.901 197.064 214.828 197.076 214.75 197.088H214.756Z" fill="#C2BEC1"/>
<path d="M114.794 120.756H98.7688C96.7799 120.756 95.1676 122.206 95.1676 123.995V128.981C95.1676 130.77 96.7799 132.22 98.7688 132.22H114.794C116.783 132.22 118.395 130.77 118.395 128.981V123.995C118.395 122.206 116.783 120.756 114.794 120.756Z" fill="#D5232B"/>
<path d="M95.1676 124.538H118.395V129.016C118.395 130.804 116.782 132.255 114.794 132.255H98.7688C96.7812 132.255 95.1676 130.804 95.1676 129.016V124.538Z" fill="#A11F24"/>
<path d="M142.35 198.285C143.825 192.712 139.998 187.119 133.802 185.792C127.606 184.466 121.388 187.908 119.913 193.481C118.438 199.054 122.265 204.647 128.461 205.974C134.657 207.301 140.875 203.858 142.35 198.285Z" fill="#706E6F"/>
<path d="M62.0414 205.372C61.7003 205.189 61.451 204.876 61.3854 204.498C61.2674 203.826 61.779 203.189 62.5334 203.082L130.537 194.344C131.285 194.238 131.993 194.698 132.111 195.377C132.23 196.055 131.718 196.686 130.963 196.793L62.9597 205.531C62.6318 205.578 62.3103 205.513 62.0414 205.372Z" fill="#C2BEC1"/>
<path d="M82.6255 195.737C82.6255 197.176 81.3333 198.339 79.7327 198.339C78.1322 198.339 76.8399 197.176 76.8399 195.737C76.8399 194.297 78.1322 193.135 79.7327 193.135C81.3333 193.135 82.6255 194.297 82.6255 195.737Z" fill="#706E6F"/>
<path d="M79.7327 203.407C75.0295 203.407 71.1986 199.967 71.1986 195.731C71.1986 191.494 75.0229 188.054 79.7327 188.054C84.4426 188.054 88.2668 191.494 88.2668 195.731C88.2668 199.967 84.436 203.407 79.7327 203.407ZM79.7327 188.597C75.3575 188.597 71.7956 191.801 71.7956 195.737C71.7956 199.672 75.3575 202.876 79.7327 202.876C84.108 202.876 87.6699 199.672 87.6699 195.737C87.6699 191.801 84.108 188.597 79.7327 188.597Z" fill="#706E6F"/>
<path d="M131.764 208.711C131.442 208.711 131.114 208.699 130.793 208.682L78.9653 205.555C73.442 205.218 69.1127 201.059 69.1127 196.079C69.1127 191.099 73.442 186.939 78.9653 186.603L130.793 183.47C134.716 183.234 138.455 184.432 141.328 186.845C144.201 189.258 145.782 192.539 145.782 196.073C145.782 199.607 144.201 202.888 141.328 205.301C138.697 207.514 135.332 208.705 131.764 208.705V208.711ZM79.0112 204.888L130.839 208.015C134.552 208.239 138.094 207.106 140.816 204.817C143.532 202.528 145.034 199.43 145.034 196.079C145.034 192.727 143.538 189.63 140.816 187.34C138.1 185.051 134.552 183.912 130.839 184.142L79.0112 187.276C73.875 187.582 69.8539 191.453 69.8539 196.079C69.8539 200.705 73.875 204.575 79.0112 204.882V204.888Z" fill="#706E6F"/>
<path d="M70.4118 207.58L54.957 189.139C53.8273 187.791 51.6968 187.522 50.1983 188.538L49.4544 189.042C47.9559 190.058 47.6569 191.975 48.7865 193.323L64.2413 211.764C65.371 213.112 67.5015 213.381 69 212.364L69.7438 211.86C71.2424 210.844 71.5414 208.928 70.4118 207.58Z" fill="#D5232B"/>
<path d="M52.7267 191.016C51.8084 189.919 50.3128 189.465 48.909 189.706C48.0694 190.892 48.0759 192.468 49.073 193.66L63.9699 211.431C64.8883 212.529 66.3839 212.983 67.7876 212.741C68.6273 211.555 68.6207 209.98 67.6236 208.788L52.7267 191.016Z" fill="#A11F24"/>
<path d="M214.664 198.339C216.262 198.339 217.557 197.174 217.557 195.737C217.557 194.299 216.262 193.135 214.664 193.135C213.067 193.135 211.772 194.299 211.772 195.737C211.772 197.174 213.067 198.339 214.664 198.339Z" fill="#706E6F"/>
<path d="M70.8182 185.429C70.8182 185.429 67.6761 188.143 70.6673 194.079C73.652 200.008 79.8377 206.251 79.8705 208.587C79.9033 210.924 75.9544 211.951 74.5309 211.189C73.0485 210.393 65.6164 203.672 63.0385 199.613C60.454 195.554 59.3847 193.636 57.5546 192.645C55.731 191.654 54.0255 190.568 52.3659 188.904C50.7063 187.24 58.1581 179.841 63.1434 179.192C68.1287 178.543 70.8182 185.423 70.8182 185.423V185.429Z" fill="#F73E60"/>
<path d="M57.5546 192.645C55.7311 191.654 54.0256 190.568 52.366 188.904C51.769 188.308 52.3594 186.963 53.5795 185.458C54.4454 186.845 54.9505 189.046 57.4234 190.42C59.1749 191.4 59.6931 190.715 61.4642 191.5C65.4787 193.282 64.2783 197.436 68.483 203.029C70.1032 205.189 72.0449 207.767 75.5608 208.764C77.2663 209.248 78.6636 209.166 79.8049 209.083C79.3064 211.054 75.8429 211.88 74.531 211.178C73.0485 210.381 65.6164 203.661 63.0385 199.601C60.454 195.542 59.3848 193.624 57.5546 192.633V192.645Z" fill="black"/>
<path d="M70.359 186.42C82.783 171.398 115.004 164.748 123.531 160.748C125.539 159.804 127.238 158.435 128.477 156.771L133.85 106.076L107.526 102.317C107.526 102.317 101.931 109.893 101.17 119.977C100.835 124.39 108.024 146.746 108.024 146.746C95.5021 153.437 91.8877 147.443 79.7065 163.415L62.6383 176.767L62.6514 179.552C62.6711 183.234 66.0231 186.361 70.2672 186.42C70.2934 186.42 70.3262 186.42 70.3525 186.42H70.359Z" fill="#333333"/>
<path d="M96.1121 115.746C96.1121 115.746 122.423 122.502 142.574 113.392C142.574 113.392 143.427 93.4372 144.365 91.8501C145.303 90.2629 148.465 65.995 146.418 62.1657C143.729 57.1445 135.076 48.2056 122.515 59.5224C103.485 76.6627 96.1187 115.746 96.1187 115.746H96.1121Z" fill="#404FA8"/>
<g style="mix-blend-mode:multiply" opacity="0.4">
<path d="M98.7294 104.966C101.334 102.181 114.099 77.5065 115.411 75.2997C116.526 73.4175 123.44 59.2627 128.254 55.5338C126.444 56.407 124.528 57.6992 122.508 59.5165C109.822 70.9394 102.324 92.1156 98.7294 104.966Z" fill="#C2B3A1"/>
</g>
<path d="M149.219 37.7679L135.686 42.441L134.086 49.2086C133.902 49.8576 132.833 55.6458 132.833 55.6458C136.441 60.0239 140.632 62.7321 140.632 62.7321C140.632 62.7321 141.787 59.3512 143.04 54.9437L149.212 37.7679H149.219Z" fill="#FFC89E"/>
<path d="M142.646 35.8327L149.226 37.7679L143.053 54.9437C142.869 55.8583 142.187 57.8467 142.187 57.8467C140.186 56.9557 136.565 53.6928 135.398 50.5421C134.821 48.9903 135.267 47.3441 135.778 44.7657C136.808 39.5144 139.662 36.9183 142.653 35.8268L142.646 35.8327Z" fill="#DEA385"/>
<path d="M152.551 36.1985C153.371 38.712 152.354 41.137 152.348 44.9604C152.348 47.6155 150.721 50.0347 149.763 51.8815C146.274 58.6432 142.436 56.6135 135.87 50.4182C134.643 49.2617 135.208 45.1905 135.89 42.7124C139.137 30.9413 151.876 34.1275 152.551 36.1926V36.1985Z" fill="#FFC89E"/>
<path d="M132.439 34.5936C135.581 24.8286 151.377 30.2392 153.063 32.4695C156.316 36.7826 152.787 39.1781 151.869 38.9067C148.989 38.4819 139.052 36.2634 139.563 43.922C139.694 45.8514 137.392 44.8306 135.404 44.3586C134.486 46.3824 134.381 49.716 134.165 49.4387C133.653 48.7779 128.281 47.5211 132.439 34.5936Z" fill="#333333"/>
<path d="M137.694 47.3087C136.552 47.7572 135.044 46.9193 134.329 45.4442C133.614 43.9633 133.961 42.4056 135.103 41.9572C136.244 41.5088 137.753 42.3466 138.468 43.8217C139.183 45.3026 138.835 46.8603 137.694 47.3087Z" fill="#FFC89E"/>
<path d="M152.23 46.5004C152.23 46.5004 154.165 43.3083 143.256 46.4532C143.256 46.4532 141.374 53.2444 147.356 53.9406C151.849 54.4658 151.797 49.7101 152.236 46.5004H152.23Z" fill="white"/>
<path d="M143.355 47.1848C140.114 46.288 137.963 43.627 137.877 43.5148L138.481 43.1254C138.481 43.1254 140.58 45.7157 143.578 46.5476L143.361 47.1907L143.355 47.1848Z" fill="white"/>
<path d="M129.757 38.7769C129.757 38.7769 129.77 27.8496 141.702 27.7139C153.804 27.5781 155.516 32.6996 154.44 36.641C153.634 39.6029 145.08 35.6556 142.777 37.4434C140.475 39.2312 142.259 43.6565 138.651 42.8363C135.49 42.1165 134.584 42.7065 134.322 45.4383C134.322 45.4383 129.212 46.4945 129.75 38.771L129.757 38.7769Z" fill="#F73E60"/>
<path d="M139.471 40.1281C139.097 41.2609 138.802 42.4705 138.573 43.6624C138.35 44.8601 138.205 46.0697 138.166 47.2851C138.133 48.4947 138.218 49.7102 138.52 50.8843C138.822 52.0526 139.38 53.1795 140.304 54.0469L140.055 54.2829C138.999 53.4215 138.31 52.2473 137.897 51.0377C137.484 49.8223 137.3 48.5537 137.235 47.2969C137.175 46.0343 137.235 44.7775 137.372 43.5267C137.517 42.2699 137.713 41.0426 138.028 39.78L139.465 40.134L139.471 40.1281Z" fill="#F73E60"/>
<path d="M153.168 36.1336C153.168 36.1336 153.109 36.1336 153.083 36.1218C152.879 36.0805 152.761 35.8976 152.807 35.7146C153.319 33.8089 152.066 32.5639 152.053 32.5521C151.915 32.4164 151.922 32.204 152.072 32.0801C152.223 31.9562 152.459 31.9621 152.597 32.0978C152.663 32.1568 154.139 33.62 153.535 35.874C153.496 36.0274 153.338 36.1277 153.174 36.1277L153.168 36.1336Z" fill="white"/>
<path d="M150.754 36.1926C150.754 36.1926 150.701 36.1926 150.675 36.1867C150.472 36.1454 150.347 35.9684 150.387 35.7914C150.754 34.2573 149.855 33.266 149.816 33.2247C149.685 33.0831 149.704 32.8707 149.862 32.7527C150.019 32.6347 150.255 32.6524 150.387 32.794C150.432 32.8471 151.561 34.0685 151.115 35.933C151.075 36.0923 150.924 36.1985 150.754 36.1985V36.1926Z" fill="white"/>
<path d="M139.32 40.0927C139.353 40.6237 138.901 41.078 138.317 41.1075C137.726 41.137 137.221 40.7299 137.189 40.2048C137.156 39.6737 137.608 39.2194 138.192 39.1899C138.783 39.1604 139.288 39.5675 139.32 40.0927Z" fill="white"/>
<path d="M120.046 56.4484L83.4176 41.4963C81.8506 40.8566 80.0038 41.4807 79.2926 42.8902L59.8504 81.4245C59.1392 82.834 59.833 84.4951 61.4 85.1348L98.0282 100.087C99.5952 100.727 101.442 100.103 102.153 98.693L121.595 60.1588C122.307 58.7493 121.613 57.0881 120.046 56.4484Z" fill="#F73E60"/>
<path d="M114.755 107.35C108.53 107.35 102.377 104.335 96.814 98.423L97.9489 97.5556C108.195 108.448 117.72 106.866 123.905 103.621C136.369 97.0895 144.758 78.4741 140.226 67.411C138.068 62.1421 134.84 58.8379 130.629 57.5752C123.564 55.4688 116.014 59.8115 115.935 59.8587L115.122 58.7376C115.457 58.5429 123.361 53.9997 131.095 56.3067C135.759 57.6992 139.301 61.2806 141.623 66.9508C146.366 78.5272 137.641 97.9746 124.653 104.778C121.38 106.495 118.048 107.344 114.748 107.344L114.755 107.35Z" fill="#F73E60"/>
<g style="mix-blend-mode:multiply" opacity="0.4">
<path d="M128.163 76.2556L137.49 103.763C137.49 103.763 127.454 96.0098 128.163 76.2556Z" fill="#C2B3A1"/>
</g>
<path d="M98.0931 71.3819C99.4182 67.9185 97.5749 64.0066 93.8819 62.4607C93.7638 62.4135 93.2849 62.2365 93.1603 62.1952C89.3229 60.962 84.9542 62.5787 83.1962 65.8829C82.0614 68.0129 82.5927 69.8479 83.2618 72.2847C83.5504 73.3349 85.0198 77.0285 85.3871 77.8251C85.538 78.1555 85.807 78.4092 86.1284 78.539C86.4564 78.6452 86.8434 78.6334 87.2107 78.4977C88.0963 78.1673 92.0255 76.468 93.0488 75.9016C95.4234 74.5917 97.2404 73.624 98.0931 71.3878V71.3819ZM89.1917 71.8068C87.4862 71.1754 86.6728 69.423 87.3747 67.889C88.0766 66.3549 90.0248 65.6232 91.7303 66.2487C93.4358 66.88 94.2492 68.6324 93.5473 70.1665C92.8454 71.7006 90.8972 72.4322 89.1917 71.8068Z" fill="white"/>
<g style="mix-blend-mode:multiply" opacity="0.29">
<path d="M147.874 84.5809L140.659 69.3463C139.996 67.6589 136.428 65.7413 134.742 65.2574C134.263 66.3431 134.788 65.2574 135.162 66.4493L140.836 84.7284L145.775 100.642C146.083 101.633 146.936 102.406 148.025 102.671L181.827 109.445L181.02 107.439L151.941 94.9595L147.868 84.5809H147.874Z" fill="#C2B3A1"/>
</g>
<path d="M131.377 86.5752L136.933 103.828C137.28 104.902 138.232 105.733 139.439 106.017L176.907 113.54L178.094 107.38L149.639 95.225L145.323 83.8965" fill="#FFC89E"/>
<path d="M145.329 83.8965L137.221 64.4373C135.844 60.8263 131.291 58.1122 127.73 60.1832C125.303 61.5933 124.194 64.2603 125.001 66.7561L131.383 86.5752" fill="#404FA8"/>
<path d="M143.63 94.1925C144.116 93.9801 144.627 93.7971 145.178 93.7263C145.723 93.6437 146.293 93.6614 146.838 93.7499C147.933 93.9388 148.957 94.4639 149.639 95.225C149.114 95.0716 148.642 94.8828 148.15 94.753C147.664 94.6114 147.185 94.4875 146.694 94.4108C146.208 94.3223 145.71 94.2751 145.204 94.2456C144.699 94.2161 144.175 94.2456 143.624 94.1925H143.63Z" fill="#DEA385"/>
<path d="M187.31 100.249L185.31 99.9863C184.253 99.8472 183.27 100.506 183.116 101.457L180.59 116.992C180.435 117.943 181.167 118.827 182.225 118.966L184.224 119.229C185.281 119.368 186.264 118.71 186.418 117.759L188.944 102.223C189.099 101.272 188.367 100.388 187.31 100.249Z" fill="#D5232B"/>
<path d="M188.885 102.541C188.026 101.881 185.415 104.04 182.575 104.424C179.21 104.884 177.609 107.262 177.609 107.262L176.251 113.315C176.251 113.315 179.098 115.687 180.666 116.218C182.739 116.92 184.838 116.342 185.179 116.749L187.389 109.598L182.726 108.341C187.56 106.282 190.164 103.527 188.885 102.541Z" fill="#FFC89E"/>
<path d="M189.751 113.174C189.705 112.82 189.292 112.548 188.682 112.354C189.357 111.958 189.633 111.339 189.666 110.766C189.705 110.159 189.102 109.781 188.229 109.551C188.898 109.333 189.128 108.931 189.161 108.43C189.22 107.504 187.226 106.359 185.605 106.294C183.978 106.229 182.621 106.925 182.562 107.846C182.529 108.43 183.021 108.92 183.795 109.25C182.686 109.362 181.925 109.687 181.879 110.448C181.833 111.233 182.608 111.817 183.742 112.218C182.411 112.542 181.486 113.186 181.44 113.876C180.954 113.958 180.489 114.1 180.062 114.336C177.99 115.481 180.758 116.496 183.5 116.926C185.776 117.286 189.272 116.743 187.58 115.327C189.941 115.05 189.849 113.947 189.751 113.174Z" fill="#FFC89E"/>
</g>
<defs>
<clipPath id="clip0_15_91">
<rect width="257" height="236" fill="white"/>
</clipPath>
</defs>
</svg>
